<?xml version="1.0" encoding="utf-8"?>
<svg viewBox="0 0 500 500" xmlns="http://www.w3.org/2000/svg">
  <g id="text817" style="font-style:normal;font-variant:normal;font-weight:normal;font-stretch:normal;font-size:26.1452446px;line-height:125%;font-family:'Open Sans';-inkscape-font-specification:'Open Sans, Normal';text-align:center;letter-spacing:0px;word-spacing:0px;writing-mode:lr-tb;text-anchor:middle;fill:#000000;fill-opacity:1;stroke:#ffffff;stroke-width:0.80000001;stroke-linecap:butt;stroke-linejoin:miter;stroke-miterlimit:4;stroke-dasharray:none;stroke-opacity:1" aria-label="aoe2map" transform="matrix(1, 0, 0, 1, 115.913298, 22.971357)">
    <path id="path2312" style="font-style:normal;font-variant:normal;font-weight:normal;font-stretch:normal;font-family:'Trajan Pro';-inkscape-font-specification:'Trajan Pro';stroke:#ffffff;stroke-width:0.80000001;stroke-miterlimit:4;stroke-dasharray:none" d="m 47.349432,129.50524 c -0.444469,1.12425 -0.888938,1.90861 -1.934748,2.03933 -0.183017,0.0262 -0.522905,0.0523 -0.679777,0.0523 -0.104581,0 -0.209161,0.0784 -0.209161,0.18302 0,0.13073 0.156871,0.18302 0.444469,0.18302 0.941228,0 2.091619,-0.0784 2.326926,-0.0784 0.261453,0 1.516425,0.0784 2.065475,0.0784 0.209162,0 0.339888,-0.0523 0.339888,-0.18302 0,-0.10458 -0.05229,-0.18302 -0.235307,-0.18302 h -0.209162 c -0.392179,0 -0.784358,-0.15687 -0.784358,-0.60134 0,-0.39218 0.130727,-0.94123 0.339889,-1.49028 l 1.307262,-3.55575 c 0.05229,-0.13073 0.130726,-0.18302 0.235307,-0.18302 h 5.307485 c 0.130726,0 0.156871,0.0262 0.209162,0.13073 l 2.065474,5.09832 c 0.156871,0.36604 -0.07844,0.54905 -0.209162,0.60134 -0.104581,0.0523 -0.156871,0.0523 -0.156871,0.15687 0,0.13073 0.366033,0.13073 0.810502,0.15688 1.59486,0.0523 3.294301,0.0523 3.634189,0.0523 0.261453,0 0.522905,-0.0523 0.522905,-0.18302 0,-0.13073 -0.156871,-0.18302 -0.287598,-0.18302 -0.235307,0 -0.575195,-0.0261 -0.915083,-0.13072 -0.49676,-0.15687 -1.124246,-0.44447 -1.960894,-2.43151 -1.411843,-3.37274 -5.098322,-12.54972 -5.516646,-13.49095 -0.235307,-0.49676 -0.313743,-0.8105 -0.54905,-0.8105 -0.156872,0 -0.261453,0.13073 -0.54905,0.86279 z m 3.320446,-4.65385 c -0.07844,0 -0.104581,-0.0523 -0.07844,-0.15687 l 2.14391,-6.09184 c 0.130727,-0.33989 0.261453,-0.33989 0.392179,0 l 2.274636,6.09184 c 0.02615,0.10458 0.02615,0.15687 -0.07843,0.15687 z"/>
    <path id="path2314" style="font-style:normal;font-variant:normal;font-weight:normal;font-stretch:normal;font-family:'Trajan Pro';-inkscape-font-specification:'Trajan Pro';stroke:#ffffff;stroke-width:0.80000001;stroke-miterlimit:4;stroke-dasharray:none" d="m 62.933223,123.51798 c 0,4.00022 2.69296,8.73251 8.993964,8.73251 5.542792,0 9.229272,-4.1048 9.229272,-9.0724 0,-5.17675 -3.921787,-8.34033 -9.098545,-8.34033 -6.353295,0 -9.124691,5.09832 -9.124691,8.68022 z m 2.379217,-0.60134 c 0,-4.83687 2.771396,-7.24223 6.614747,-7.24223 3.634189,0 6.8762,2.79754 6.8762,8.13117 0,6.43173 -4.157094,7.52983 -6.222569,7.52983 -4.157093,0 -7.268378,-3.24201 -7.268378,-8.41877 z"/>
    <path id="path2316" style="font-style:normal;font-variant:normal;font-weight:normal;font-stretch:normal;font-family:'Trajan Pro';-inkscape-font-specification:'Trajan Pro';stroke:#ffffff;stroke-width:0.80000001;stroke-miterlimit:4;stroke-dasharray:none" d="m 85.973718,125.50502 c 0,2.14391 0,3.89564 -0.130726,4.81073 -0.104581,0.65363 -0.156872,1.0981 -0.601341,1.17653 -0.209162,0.0262 -0.49676,0.10458 -0.705922,0.10458 -0.130726,0 -0.183016,0.10458 -0.183016,0.18302 0,0.13073 0.130726,0.18302 0.366033,0.18302 0.366033,0 0.888938,-0.0262 1.333408,-0.0523 0.496759,-0.0262 0.941228,-0.0262 0.993519,-0.0262 0.339888,0 0.941229,0 1.908603,0.0523 0.941228,0.0262 2.274636,0.0784 4.000222,0.0784 0.888938,0 1.124246,0 1.281117,-0.5752 0.130726,-0.47061 0.313743,-1.98704 0.313743,-2.14391 0,-0.15687 -0.02614,-0.33989 -0.156871,-0.33989 -0.130727,0 -0.183017,0.0784 -0.235308,0.33989 -0.130726,0.88894 -0.444469,1.28112 -1.045809,1.54257 -0.601341,0.23531 -1.699441,0.23531 -2.300782,0.23531 -2.274636,0 -2.69296,-0.2876 -2.745251,-1.77788 -0.02614,-0.44447 0,-3.03285 0,-3.79106 v -1.85631 c 0,-0.0784 0.02615,-0.15687 0.156872,-0.15687 0.392178,0 2.849831,0.0261 3.477317,0.10458 0.888939,0.10458 1.098101,0.36603 1.176536,0.67977 0.104581,0.2876 0.104581,0.52291 0.104581,0.73207 0,0.13073 0.05229,0.20916 0.156872,0.20916 0.156871,0 0.209162,-0.2353 0.209162,-0.41832 0,-0.15687 0.05229,-0.99352 0.104581,-1.43799 0.05229,-0.73207 0.183016,-1.0981 0.183016,-1.22883 0,-0.13072 -0.05229,-0.18301 -0.130726,-0.18301 -0.07844,0 -0.183017,0.13072 -0.339888,0.2876 -0.235307,0.2353 -0.575195,0.26145 -1.124245,0.31374 -0.522905,0.0523 -3.555754,0.0523 -3.843351,0.0523 -0.130727,0 -0.130727,-0.0784 -0.130727,-0.23531 v -6.03955 c 0,-0.15687 0.02615,-0.23531 0.130727,-0.23531 0.261452,0 2.928267,0.0262 3.320446,0.0784 1.254971,0.15687 1.490279,0.31374 1.64715,0.67977 0.104581,0.26146 0.130726,0.62749 0.130726,0.78436 0,0.18302 0.05229,0.2876 0.183017,0.2876 0.104581,0 0.183017,-0.13073 0.209162,-0.23531 0.05229,-0.26145 0.104581,-1.25497 0.130726,-1.46413 0.05229,-0.62749 0.183017,-0.88894 0.183017,-1.04581 0,-0.10458 -0.02614,-0.20916 -0.104581,-0.20916 -0.104581,0 -0.209162,0.0784 -0.313743,0.10458 -0.183017,0.0261 -0.601341,0.10458 -1.04581,0.13072 -0.522905,0.0262 -5.33363,0 -5.490501,0 -0.130726,0 -1.621005,-0.0523 -2.666815,-0.0523 -0.261453,0 -0.366034,0.0523 -0.366034,0.18302 0,0.0784 0.104581,0.18302 0.183017,0.18302 0.209162,0 0.601341,0.0261 0.784357,0.0523 0.758213,0.10458 0.888939,0.47061 0.941229,1.22882 0.05229,0.70593 0.05229,1.33341 0.05229,4.78458 z"/>
    <path id="path2318" style="font-style:normal;font-variant:normal;font-weight:normal;font-stretch:normal;font-family:'Trajan Pro';-inkscape-font-specification:'Trajan Pro';stroke:#ffffff;stroke-width:0.80000001;stroke-miterlimit:4;stroke-dasharray:none" d="m 107.51168,131.88446 c 1.0981,0 1.49028,-0.0784 1.69944,-0.78436 0.26146,-0.88894 0.78436,-2.92826 0.78436,-3.42502 0,-0.15688 -0.0261,-0.39218 -0.15687,-0.39218 -0.15687,0 -0.23531,0.10458 -0.31374,0.39218 -0.31375,1.38569 -1.15039,2.32692 -3.059,2.50994 -0.94122,0.10458 -4.02636,0.13073 -4.47083,0.13073 h -1.90861 c -0.130722,0 -0.183012,-0.0784 -0.0523,-0.18302 3.24201,-2.7714 9.09855,-7.60827 9.09855,-13.02033 0,-2.7714 -1.96089,-5.28134 -5.90883,-5.28134 -2.11776,0 -3.634185,0.47061 -4.601559,0.91508 -0.235307,0.15687 -0.261453,0.23531 -0.261453,0.39218 0,0.8105 0.130726,2.98056 0.156872,3.21587 0.02614,0.2353 0.104581,0.33988 0.209162,0.33988 0.130726,0 0.235307,-0.15687 0.235307,-0.39218 0,-1.01966 0.287598,-1.93474 0.915083,-2.53608 0.758208,-0.70593 1.542568,-0.99352 2.797538,-0.99352 1.75174,0 4.1571,1.0981 4.1571,4.83687 0,5.01988 -3.89564,8.62793 -9.124693,13.28178 -0.209162,0.18302 -0.470614,0.41833 -0.470614,0.62749 0,0.20916 0.183016,0.36603 0.366033,0.36603 z"/>
    <path id="path2320" style="font-style:normal;font-variant:normal;font-weight:normal;font-stretch:normal;font-family:'Trajan Pro';-inkscape-font-specification:'Trajan Pro';stroke:#ffffff;stroke-width:0.80000001;stroke-miterlimit:4;stroke-dasharray:none" d="m 130.94599,115.4391 c -0.0523,-0.41832 -0.18302,-0.60134 -0.33989,-0.60134 -0.15687,0 -0.26145,0.15687 -0.36603,0.36603 l -6.69318,13.77855 -6.95464,-13.80469 c -0.13072,-0.26145 -0.31374,-0.33989 -0.47061,-0.33989 -0.13073,0 -0.23531,0.15687 -0.26146,0.39218 l -1.67329,14.51061 c -0.10458,0.83665 -0.13073,1.64715 -0.88894,1.77788 -0.33989,0.0523 -0.49676,0.0784 -0.67978,0.0784 -0.13072,0 -0.2353,0.0784 -0.2353,0.15687 0,0.15688 0.15687,0.20917 0.39218,0.20917 0.62748,0 1.72558,-0.0784 1.93474,-0.0784 0.18302,0 1.28112,0.0784 2.14391,0.0784 0.26146,0 0.41833,-0.0523 0.41833,-0.20917 0,-0.0784 -0.10458,-0.15687 -0.18302,-0.15687 -0.15687,0 -0.49676,-0.0261 -0.88894,-0.13072 -0.33989,-0.0784 -0.54905,-0.2876 -0.54905,-0.62749 0,-0.36603 0,-0.78436 0.0262,-1.12424 l 0.88894,-10.03978 h 0.10458 c 0.39218,0.91508 2.24849,4.65385 2.92826,6.0657 0.5752,1.20268 2.09162,4.05251 2.69296,5.15061 0.44447,0.8105 0.5752,1.01967 0.78436,1.01967 0.20916,0 0.33989,-0.20917 0.8105,-1.17654 l 5.5428,-11.34704 h 0.0523 l 1.0981,11.24246 c 0.0523,0.41832 0.0261,0.75821 -0.10458,0.78436 -0.10458,0.0261 -0.15687,0.10458 -0.15687,0.18301 0,0.10458 0.10458,0.18302 0.65363,0.23531 0.83664,0.0784 3.39888,0.13073 3.92178,0.13073 0.26146,0 0.47062,-0.0784 0.47062,-0.20917 0,-0.10458 -0.0784,-0.15687 -0.18302,-0.15687 -0.23531,0 -0.83665,0 -1.49028,-0.20916 -0.94123,-0.31374 -1.0981,-1.51642 -1.17653,-2.30078 z"/>
    <path id="path2322" style="font-style:normal;font-variant:normal;font-weight:normal;font-stretch:normal;font-family:'Trajan Pro';-inkscape-font-specification:'Trajan Pro';stroke:#ffffff;stroke-width:0.80000001;stroke-miterlimit:4;stroke-dasharray:none" d="m 137.98968,129.50524 c -0.44447,1.12425 -0.88894,1.90861 -1.93475,2.03933 -0.18301,0.0262 -0.5229,0.0523 -0.67977,0.0523 -0.10458,0 -0.20916,0.0784 -0.20916,0.18302 0,0.13073 0.15687,0.18302 0.44447,0.18302 0.94122,0 2.09162,-0.0784 2.32692,-0.0784 0.26146,0 1.51643,0.0784 2.06548,0.0784 0.20916,0 0.33989,-0.0523 0.33989,-0.18302 0,-0.10458 -0.0523,-0.18302 -0.23531,-0.18302 h -0.20916 c -0.39218,0 -0.78436,-0.15687 -0.78436,-0.60134 0,-0.39218 0.13072,-0.94123 0.33989,-1.49028 l 1.30726,-3.55575 c 0.0523,-0.13073 0.13073,-0.18302 0.23531,-0.18302 h 5.30748 c 0.13073,0 0.15687,0.0262 0.20916,0.13073 l 2.06548,5.09832 c 0.15687,0.36604 -0.0784,0.54905 -0.20916,0.60134 -0.10459,0.0523 -0.15688,0.0523 -0.15688,0.15687 0,0.13073 0.36604,0.13073 0.81051,0.15688 1.59486,0.0523 3.2943,0.0523 3.63419,0.0523 0.26145,0 0.5229,-0.0523 0.5229,-0.18302 0,-0.13073 -0.15687,-0.18302 -0.2876,-0.18302 -0.2353,0 -0.57519,-0.0261 -0.91508,-0.13072 -0.49676,-0.15687 -1.12425,-0.44447 -1.96089,-2.43151 -1.41185,-3.37274 -5.09833,-12.54972 -5.51665,-13.49095 -0.23531,-0.49676 -0.31374,-0.8105 -0.54905,-0.8105 -0.15687,0 -0.26145,0.13073 -0.54905,0.86279 z m 3.32045,-4.65385 c -0.0784,0 -0.10458,-0.0523 -0.0784,-0.15687 l 2.14391,-6.09184 c 0.13073,-0.33989 0.26146,-0.33989 0.39218,0 l 2.27464,6.09184 c 0.0261,0.10458 0.0261,0.15687 -0.0784,0.15687 z"/>
    <path id="path2324" style="font-style:normal;font-variant:normal;font-weight:normal;font-stretch:normal;font-family:'Trajan Pro';-inkscape-font-specification:'Trajan Pro';stroke:#ffffff;stroke-width:0.80000001;stroke-miterlimit:4;stroke-dasharray:none" d="m 156.188,125.50502 c 0,2.14391 0,3.89564 -0.13073,4.81073 -0.10458,0.65363 -0.15687,1.07195 -0.60134,1.17653 -0.20916,0.0523 -0.49676,0.10458 -0.70592,0.10458 -0.13073,0 -0.18302,0.10458 -0.18302,0.18302 0,0.13073 0.13073,0.18302 0.36604,0.18302 0.70592,0 2.1962,-0.0784 2.27463,-0.0784 0.10458,0 1.62101,0.0784 2.87598,0.0784 0.26145,0 0.36603,-0.0784 0.36603,-0.18302 0,-0.0784 -0.0523,-0.18302 -0.18301,-0.18302 -0.20917,0 -0.70593,-0.0523 -1.01967,-0.10458 -0.70592,-0.10458 -0.83665,-0.5229 -0.91508,-1.17653 -0.10458,-0.91509 -0.10458,-2.66682 -0.10458,-4.81073 v -9.04625 c 0,-0.23531 0.0523,-0.39218 0.18301,-0.41833 0.23531,-0.0523 0.88894,-0.15687 1.28112,-0.15687 0.5229,0 1.9086,-0.13073 3.11128,1.07196 1.22883,1.20268 1.30727,2.64067 1.30727,3.37273 0,2.01319 -1.77788,3.5819 -4.26168,3.5819 -0.47061,0 -0.60134,0.0523 -0.60134,0.23531 0,0.10458 0.13073,0.20916 0.23531,0.20916 0.13072,0.0262 0.5229,0.0262 0.65363,0.0262 3.52961,0 5.93497,-2.11777 5.93497,-5.30749 0,-1.20268 -0.62749,-2.1962 -1.15039,-2.66681 -0.39218,-0.33989 -1.43799,-1.25498 -4.3924,-1.25498 -1.04581,0 -2.7714,0.0523 -3.26816,0.0523 -0.18301,0 -1.621,-0.0523 -2.66681,-0.0523 -0.26146,0 -0.36604,0.0523 -0.36604,0.18302 0,0.0784 0.10458,0.18302 0.18302,0.18302 0.20916,0 0.60134,0.0261 0.78436,0.0523 0.75821,0.10458 0.88894,0.47061 0.94123,1.22882 0.0523,0.70593 0.0523,1.33341 0.0523,4.78458 z"/>
  </g>
  <g id="text874" style="font-style:normal;font-variant:normal;font-weight:normal;font-stretch:normal;font-size:26.1452446px;line-height:125%;font-family:'Open Sans';-inkscape-font-specification:'Open Sans, Normal';text-align:center;letter-spacing:0px;word-spacing:0px;writing-mode:lr-tb;text-anchor:middle;fill:#000000;fill-opacity:1;stroke:#000000;stroke-width:0.60000002;stroke-linecap:butt;stroke-linejoin:miter;stroke-miterlimit:4;stroke-dasharray:none;stroke-opacity:1;filter:url(#filter904)" aria-label="aoe2map" transform="matrix(1, 0, 0, 1, 115.913298, 22.971357)">
    <path id="path2295" style="font-style:normal;font-variant:normal;font-weight:normal;font-stretch:normal;font-family:'Trajan Pro';-inkscape-font-specification:'Trajan Pro';stroke:#000000;stroke-width:0.60000002;stroke-miterlimit:4;stroke-dasharray:none" d="m 47.349432,129.50524 c -0.444469,1.12425 -0.888938,1.90861 -1.934748,2.03933 -0.183017,0.0262 -0.522905,0.0523 -0.679777,0.0523 -0.104581,0 -0.209161,0.0784 -0.209161,0.18302 0,0.13073 0.156871,0.18302 0.444469,0.18302 0.941228,0 2.091619,-0.0784 2.326926,-0.0784 0.261453,0 1.516425,0.0784 2.065475,0.0784 0.209162,0 0.339888,-0.0523 0.339888,-0.18302 0,-0.10458 -0.05229,-0.18302 -0.235307,-0.18302 h -0.209162 c -0.392179,0 -0.784358,-0.15687 -0.784358,-0.60134 0,-0.39218 0.130727,-0.94123 0.339889,-1.49028 l 1.307262,-3.55575 c 0.05229,-0.13073 0.130726,-0.18302 0.235307,-0.18302 h 5.307485 c 0.130726,0 0.156871,0.0262 0.209162,0.13073 l 2.065474,5.09832 c 0.156871,0.36604 -0.07844,0.54905 -0.209162,0.60134 -0.104581,0.0523 -0.156871,0.0523 -0.156871,0.15687 0,0.13073 0.366033,0.13073 0.810502,0.15688 1.59486,0.0523 3.294301,0.0523 3.634189,0.0523 0.261453,0 0.522905,-0.0523 0.522905,-0.18302 0,-0.13073 -0.156871,-0.18302 -0.287598,-0.18302 -0.235307,0 -0.575195,-0.0261 -0.915083,-0.13072 -0.49676,-0.15687 -1.124246,-0.44447 -1.960894,-2.43151 -1.411843,-3.37274 -5.098322,-12.54972 -5.516646,-13.49095 -0.235307,-0.49676 -0.313743,-0.8105 -0.54905,-0.8105 -0.156872,0 -0.261453,0.13073 -0.54905,0.86279 z m 3.320446,-4.65385 c -0.07844,0 -0.104581,-0.0523 -0.07844,-0.15687 l 2.14391,-6.09184 c 0.130727,-0.33989 0.261453,-0.33989 0.392179,0 l 2.274636,6.09184 c 0.02615,0.10458 0.02615,0.15687 -0.07843,0.15687 z"/>
    <path id="path2297" style="font-style:normal;font-variant:normal;font-weight:normal;font-stretch:normal;font-family:'Trajan Pro';-inkscape-font-specification:'Trajan Pro';stroke:#000000;stroke-width:0.60000002;stroke-miterlimit:4;stroke-dasharray:none" d="m 62.933223,123.51798 c 0,4.00022 2.69296,8.73251 8.993964,8.73251 5.542792,0 9.229272,-4.1048 9.229272,-9.0724 0,-5.17675 -3.921787,-8.34033 -9.098545,-8.34033 -6.353295,0 -9.124691,5.09832 -9.124691,8.68022 z m 2.379217,-0.60134 c 0,-4.83687 2.771396,-7.24223 6.614747,-7.24223 3.634189,0 6.8762,2.79754 6.8762,8.13117 0,6.43173 -4.157094,7.52983 -6.222569,7.52983 -4.157093,0 -7.268378,-3.24201 -7.268378,-8.41877 z"/>
    <path id="path2299" style="font-style:normal;font-variant:normal;font-weight:normal;font-stretch:normal;font-family:'Trajan Pro';-inkscape-font-specification:'Trajan Pro';stroke:#000000;stroke-width:0.60000002;stroke-miterlimit:4;stroke-dasharray:none" d="m 85.973718,125.50502 c 0,2.14391 0,3.89564 -0.130726,4.81073 -0.104581,0.65363 -0.156872,1.0981 -0.601341,1.17653 -0.209162,0.0262 -0.49676,0.10458 -0.705922,0.10458 -0.130726,0 -0.183016,0.10458 -0.183016,0.18302 0,0.13073 0.130726,0.18302 0.366033,0.18302 0.366033,0 0.888938,-0.0262 1.333408,-0.0523 0.496759,-0.0262 0.941228,-0.0262 0.993519,-0.0262 0.339888,0 0.941229,0 1.908603,0.0523 0.941228,0.0262 2.274636,0.0784 4.000222,0.0784 0.888938,0 1.124246,0 1.281117,-0.5752 0.130726,-0.47061 0.313743,-1.98704 0.313743,-2.14391 0,-0.15687 -0.02614,-0.33989 -0.156871,-0.33989 -0.130727,0 -0.183017,0.0784 -0.235308,0.33989 -0.130726,0.88894 -0.444469,1.28112 -1.045809,1.54257 -0.601341,0.23531 -1.699441,0.23531 -2.300782,0.23531 -2.274636,0 -2.69296,-0.2876 -2.745251,-1.77788 -0.02614,-0.44447 0,-3.03285 0,-3.79106 v -1.85631 c 0,-0.0784 0.02615,-0.15687 0.156872,-0.15687 0.392178,0 2.849831,0.0261 3.477317,0.10458 0.888939,0.10458 1.098101,0.36603 1.176536,0.67977 0.104581,0.2876 0.104581,0.52291 0.104581,0.73207 0,0.13073 0.05229,0.20916 0.156872,0.20916 0.156871,0 0.209162,-0.2353 0.209162,-0.41832 0,-0.15687 0.05229,-0.99352 0.104581,-1.43799 0.05229,-0.73207 0.183016,-1.0981 0.183016,-1.22883 0,-0.13072 -0.05229,-0.18301 -0.130726,-0.18301 -0.07844,0 -0.183017,0.13072 -0.339888,0.2876 -0.235307,0.2353 -0.575195,0.26145 -1.124245,0.31374 -0.522905,0.0523 -3.555754,0.0523 -3.843351,0.0523 -0.130727,0 -0.130727,-0.0784 -0.130727,-0.23531 v -6.03955 c 0,-0.15687 0.02615,-0.23531 0.130727,-0.23531 0.261452,0 2.928267,0.0262 3.320446,0.0784 1.254971,0.15687 1.490279,0.31374 1.64715,0.67977 0.104581,0.26146 0.130726,0.62749 0.130726,0.78436 0,0.18302 0.05229,0.2876 0.183017,0.2876 0.104581,0 0.183017,-0.13073 0.209162,-0.23531 0.05229,-0.26145 0.104581,-1.25497 0.130726,-1.46413 0.05229,-0.62749 0.183017,-0.88894 0.183017,-1.04581 0,-0.10458 -0.02614,-0.20916 -0.104581,-0.20916 -0.104581,0 -0.209162,0.0784 -0.313743,0.10458 -0.183017,0.0261 -0.601341,0.10458 -1.04581,0.13072 -0.522905,0.0262 -5.33363,0 -5.490501,0 -0.130726,0 -1.621005,-0.0523 -2.666815,-0.0523 -0.261453,0 -0.366034,0.0523 -0.366034,0.18302 0,0.0784 0.104581,0.18302 0.183017,0.18302 0.209162,0 0.601341,0.0261 0.784357,0.0523 0.758213,0.10458 0.888939,0.47061 0.941229,1.22882 0.05229,0.70593 0.05229,1.33341 0.05229,4.78458 z"/>
    <path id="path2301" style="font-style:normal;font-variant:normal;font-weight:normal;font-stretch:normal;font-family:'Trajan Pro';-inkscape-font-specification:'Trajan Pro';stroke:#000000;stroke-width:0.60000002;stroke-miterlimit:4;stroke-dasharray:none" d="m 107.51168,131.88446 c 1.0981,0 1.49028,-0.0784 1.69944,-0.78436 0.26146,-0.88894 0.78436,-2.92826 0.78436,-3.42502 0,-0.15688 -0.0261,-0.39218 -0.15687,-0.39218 -0.15687,0 -0.23531,0.10458 -0.31374,0.39218 -0.31375,1.38569 -1.15039,2.32692 -3.059,2.50994 -0.94122,0.10458 -4.02636,0.13073 -4.47083,0.13073 h -1.90861 c -0.130722,0 -0.183012,-0.0784 -0.0523,-0.18302 3.24201,-2.7714 9.09855,-7.60827 9.09855,-13.02033 0,-2.7714 -1.96089,-5.28134 -5.90883,-5.28134 -2.11776,0 -3.634185,0.47061 -4.601559,0.91508 -0.235307,0.15687 -0.261453,0.23531 -0.261453,0.39218 0,0.8105 0.130726,2.98056 0.156872,3.21587 0.02614,0.2353 0.104581,0.33988 0.209162,0.33988 0.130726,0 0.235307,-0.15687 0.235307,-0.39218 0,-1.01966 0.287598,-1.93474 0.915083,-2.53608 0.758208,-0.70593 1.542568,-0.99352 2.797538,-0.99352 1.75174,0 4.1571,1.0981 4.1571,4.83687 0,5.01988 -3.89564,8.62793 -9.124693,13.28178 -0.209162,0.18302 -0.470614,0.41833 -0.470614,0.62749 0,0.20916 0.183016,0.36603 0.366033,0.36603 z"/>
    <path id="path2303" style="font-style:normal;font-variant:normal;font-weight:normal;font-stretch:normal;font-family:'Trajan Pro';-inkscape-font-specification:'Trajan Pro';stroke:#000000;stroke-width:0.60000002;stroke-miterlimit:4;stroke-dasharray:none" d="m 130.94599,115.4391 c -0.0523,-0.41832 -0.18302,-0.60134 -0.33989,-0.60134 -0.15687,0 -0.26145,0.15687 -0.36603,0.36603 l -6.69318,13.77855 -6.95464,-13.80469 c -0.13072,-0.26145 -0.31374,-0.33989 -0.47061,-0.33989 -0.13073,0 -0.23531,0.15687 -0.26146,0.39218 l -1.67329,14.51061 c -0.10458,0.83665 -0.13073,1.64715 -0.88894,1.77788 -0.33989,0.0523 -0.49676,0.0784 -0.67978,0.0784 -0.13072,0 -0.2353,0.0784 -0.2353,0.15687 0,0.15688 0.15687,0.20917 0.39218,0.20917 0.62748,0 1.72558,-0.0784 1.93474,-0.0784 0.18302,0 1.28112,0.0784 2.14391,0.0784 0.26146,0 0.41833,-0.0523 0.41833,-0.20917 0,-0.0784 -0.10458,-0.15687 -0.18302,-0.15687 -0.15687,0 -0.49676,-0.0261 -0.88894,-0.13072 -0.33989,-0.0784 -0.54905,-0.2876 -0.54905,-0.62749 0,-0.36603 0,-0.78436 0.0262,-1.12424 l 0.88894,-10.03978 h 0.10458 c 0.39218,0.91508 2.24849,4.65385 2.92826,6.0657 0.5752,1.20268 2.09162,4.05251 2.69296,5.15061 0.44447,0.8105 0.5752,1.01967 0.78436,1.01967 0.20916,0 0.33989,-0.20917 0.8105,-1.17654 l 5.5428,-11.34704 h 0.0523 l 1.0981,11.24246 c 0.0523,0.41832 0.0261,0.75821 -0.10458,0.78436 -0.10458,0.0261 -0.15687,0.10458 -0.15687,0.18301 0,0.10458 0.10458,0.18302 0.65363,0.23531 0.83664,0.0784 3.39888,0.13073 3.92178,0.13073 0.26146,0 0.47062,-0.0784 0.47062,-0.20917 0,-0.10458 -0.0784,-0.15687 -0.18302,-0.15687 -0.23531,0 -0.83665,0 -1.49028,-0.20916 -0.94123,-0.31374 -1.0981,-1.51642 -1.17653,-2.30078 z"/>
    <path id="path2305" style="font-style:normal;font-variant:normal;font-weight:normal;font-stretch:normal;font-family:'Trajan Pro';-inkscape-font-specification:'Trajan Pro';stroke:#000000;stroke-width:0.60000002;stroke-miterlimit:4;stroke-dasharray:none" d="m 137.98968,129.50524 c -0.44447,1.12425 -0.88894,1.90861 -1.93475,2.03933 -0.18301,0.0262 -0.5229,0.0523 -0.67977,0.0523 -0.10458,0 -0.20916,0.0784 -0.20916,0.18302 0,0.13073 0.15687,0.18302 0.44447,0.18302 0.94122,0 2.09162,-0.0784 2.32692,-0.0784 0.26146,0 1.51643,0.0784 2.06548,0.0784 0.20916,0 0.33989,-0.0523 0.33989,-0.18302 0,-0.10458 -0.0523,-0.18302 -0.23531,-0.18302 h -0.20916 c -0.39218,0 -0.78436,-0.15687 -0.78436,-0.60134 0,-0.39218 0.13072,-0.94123 0.33989,-1.49028 l 1.30726,-3.55575 c 0.0523,-0.13073 0.13073,-0.18302 0.23531,-0.18302 h 5.30748 c 0.13073,0 0.15687,0.0262 0.20916,0.13073 l 2.06548,5.09832 c 0.15687,0.36604 -0.0784,0.54905 -0.20916,0.60134 -0.10459,0.0523 -0.15688,0.0523 -0.15688,0.15687 0,0.13073 0.36604,0.13073 0.81051,0.15688 1.59486,0.0523 3.2943,0.0523 3.63419,0.0523 0.26145,0 0.5229,-0.0523 0.5229,-0.18302 0,-0.13073 -0.15687,-0.18302 -0.2876,-0.18302 -0.2353,0 -0.57519,-0.0261 -0.91508,-0.13072 -0.49676,-0.15687 -1.12425,-0.44447 -1.96089,-2.43151 -1.41185,-3.37274 -5.09833,-12.54972 -5.51665,-13.49095 -0.23531,-0.49676 -0.31374,-0.8105 -0.54905,-0.8105 -0.15687,0 -0.26145,0.13073 -0.54905,0.86279 z m 3.32045,-4.65385 c -0.0784,0 -0.10458,-0.0523 -0.0784,-0.15687 l 2.14391,-6.09184 c 0.13073,-0.33989 0.26146,-0.33989 0.39218,0 l 2.27464,6.09184 c 0.0261,0.10458 0.0261,0.15687 -0.0784,0.15687 z"/>
    <path id="path2307" style="font-style:normal;font-variant:normal;font-weight:normal;font-stretch:normal;font-family:'Trajan Pro';-inkscape-font-specification:'Trajan Pro';stroke:#000000;stroke-width:0.60000002;stroke-miterlimit:4;stroke-dasharray:none" d="m 156.188,125.50502 c 0,2.14391 0,3.89564 -0.13073,4.81073 -0.10458,0.65363 -0.15687,1.07195 -0.60134,1.17653 -0.20916,0.0523 -0.49676,0.10458 -0.70592,0.10458 -0.13073,0 -0.18302,0.10458 -0.18302,0.18302 0,0.13073 0.13073,0.18302 0.36604,0.18302 0.70592,0 2.1962,-0.0784 2.27463,-0.0784 0.10458,0 1.62101,0.0784 2.87598,0.0784 0.26145,0 0.36603,-0.0784 0.36603,-0.18302 0,-0.0784 -0.0523,-0.18302 -0.18301,-0.18302 -0.20917,0 -0.70593,-0.0523 -1.01967,-0.10458 -0.70592,-0.10458 -0.83665,-0.5229 -0.91508,-1.17653 -0.10458,-0.91509 -0.10458,-2.66682 -0.10458,-4.81073 v -9.04625 c 0,-0.23531 0.0523,-0.39218 0.18301,-0.41833 0.23531,-0.0523 0.88894,-0.15687 1.28112,-0.15687 0.5229,0 1.9086,-0.13073 3.11128,1.07196 1.22883,1.20268 1.30727,2.64067 1.30727,3.37273 0,2.01319 -1.77788,3.5819 -4.26168,3.5819 -0.47061,0 -0.60134,0.0523 -0.60134,0.23531 0,0.10458 0.13073,0.20916 0.23531,0.20916 0.13072,0.0262 0.5229,0.0262 0.65363,0.0262 3.52961,0 5.93497,-2.11777 5.93497,-5.30749 0,-1.20268 -0.62749,-2.1962 -1.15039,-2.66681 -0.39218,-0.33989 -1.43799,-1.25498 -4.3924,-1.25498 -1.04581,0 -2.7714,0.0523 -3.26816,0.0523 -0.18301,0 -1.621,-0.0523 -2.66681,-0.0523 -0.26146,0 -0.36604,0.0523 -0.36604,0.18302 0,0.0784 0.10458,0.18302 0.18302,0.18302 0.20916,0 0.60134,0.0261 0.78436,0.0523 0.75821,0.10458 0.88894,0.47061 0.94123,1.22882 0.0523,0.70593 0.0523,1.33341 0.0523,4.78458 z"/>
  </g>
  <g id="text840" style="font-style:normal;font-variant:normal;font-weight:normal;font-stretch:normal;font-size:26.1452446px;line-height:125%;font-family:'Open Sans';-inkscape-font-specification:'Open Sans, Normal';text-align:center;letter-spacing:0px;word-spacing:0px;writing-mode:lr-tb;text-anchor:middle;fill:url(#linearGradient2345);fill-opacity:1;stroke:none;stroke-width:1.49401391px;stroke-linecap:butt;stroke-linejoin:miter;stroke-opacity:1" aria-label="aoe2map" transform="matrix(1, 0, 0, 1, 115.913298, 22.971357)">
    <path id="path2278" style="font-style:normal;font-variant:normal;font-weight:normal;font-stretch:normal;font-family:'Trajan Pro';-inkscape-font-specification:'Trajan Pro';fill:url(#linearGradient2329);fill-opacity:1;stroke:none;stroke-width:1.49401391px" d="m 47.349432,129.50524 c -0.444469,1.12425 -0.888938,1.90861 -1.934748,2.03933 -0.183017,0.0262 -0.522905,0.0523 -0.679777,0.0523 -0.104581,0 -0.209161,0.0784 -0.209161,0.18302 0,0.13073 0.156871,0.18302 0.444469,0.18302 0.941228,0 2.091619,-0.0784 2.326926,-0.0784 0.261453,0 1.516425,0.0784 2.065475,0.0784 0.209162,0 0.339888,-0.0523 0.339888,-0.18302 0,-0.10458 -0.05229,-0.18302 -0.235307,-0.18302 h -0.209162 c -0.392179,0 -0.784358,-0.15687 -0.784358,-0.60134 0,-0.39218 0.130727,-0.94123 0.339889,-1.49028 l 1.307262,-3.55575 c 0.05229,-0.13073 0.130726,-0.18302 0.235307,-0.18302 h 5.307485 c 0.130726,0 0.156871,0.0262 0.209162,0.13073 l 2.065474,5.09832 c 0.156871,0.36604 -0.07844,0.54905 -0.209162,0.60134 -0.104581,0.0523 -0.156871,0.0523 -0.156871,0.15687 0,0.13073 0.366033,0.13073 0.810502,0.15688 1.59486,0.0523 3.294301,0.0523 3.634189,0.0523 0.261453,0 0.522905,-0.0523 0.522905,-0.18302 0,-0.13073 -0.156871,-0.18302 -0.287598,-0.18302 -0.235307,0 -0.575195,-0.0261 -0.915083,-0.13072 -0.49676,-0.15687 -1.124246,-0.44447 -1.960894,-2.43151 -1.411843,-3.37274 -5.098322,-12.54972 -5.516646,-13.49095 -0.235307,-0.49676 -0.313743,-0.8105 -0.54905,-0.8105 -0.156872,0 -0.261453,0.13073 -0.54905,0.86279 z m 3.320446,-4.65385 c -0.07844,0 -0.104581,-0.0523 -0.07844,-0.15687 l 2.14391,-6.09184 c 0.130727,-0.33989 0.261453,-0.33989 0.392179,0 l 2.274636,6.09184 c 0.02615,0.10458 0.02615,0.15687 -0.07843,0.15687 z"/>
    <path id="path2280" style="font-style:normal;font-variant:normal;font-weight:normal;font-stretch:normal;font-family:'Trajan Pro';-inkscape-font-specification:'Trajan Pro';fill:url(#linearGradient2331);fill-opacity:1;stroke:none;stroke-width:1.49401391px" d="m 62.933223,123.51798 c 0,4.00022 2.69296,8.73251 8.993964,8.73251 5.542792,0 9.229272,-4.1048 9.229272,-9.0724 0,-5.17675 -3.921787,-8.34033 -9.098545,-8.34033 -6.353295,0 -9.124691,5.09832 -9.124691,8.68022 z m 2.379217,-0.60134 c 0,-4.83687 2.771396,-7.24223 6.614747,-7.24223 3.634189,0 6.8762,2.79754 6.8762,8.13117 0,6.43173 -4.157094,7.52983 -6.222569,7.52983 -4.157093,0 -7.268378,-3.24201 -7.268378,-8.41877 z"/>
    <path id="path2282" style="font-style:normal;font-variant:normal;font-weight:normal;font-stretch:normal;font-family:'Trajan Pro';-inkscape-font-specification:'Trajan Pro';fill:url(#linearGradient2333);fill-opacity:1;stroke:none;stroke-width:1.49401391px" d="m 85.973718,125.50502 c 0,2.14391 0,3.89564 -0.130726,4.81073 -0.104581,0.65363 -0.156872,1.0981 -0.601341,1.17653 -0.209162,0.0262 -0.49676,0.10458 -0.705922,0.10458 -0.130726,0 -0.183016,0.10458 -0.183016,0.18302 0,0.13073 0.130726,0.18302 0.366033,0.18302 0.366033,0 0.888938,-0.0262 1.333408,-0.0523 0.496759,-0.0262 0.941228,-0.0262 0.993519,-0.0262 0.339888,0 0.941229,0 1.908603,0.0523 0.941228,0.0262 2.274636,0.0784 4.000222,0.0784 0.888938,0 1.124246,0 1.281117,-0.5752 0.130726,-0.47061 0.313743,-1.98704 0.313743,-2.14391 0,-0.15687 -0.02614,-0.33989 -0.156871,-0.33989 -0.130727,0 -0.183017,0.0784 -0.235308,0.33989 -0.130726,0.88894 -0.444469,1.28112 -1.045809,1.54257 -0.601341,0.23531 -1.699441,0.23531 -2.300782,0.23531 -2.274636,0 -2.69296,-0.2876 -2.745251,-1.77788 -0.02614,-0.44447 0,-3.03285 0,-3.79106 v -1.85631 c 0,-0.0784 0.02615,-0.15687 0.156872,-0.15687 0.392178,0 2.849831,0.0261 3.477317,0.10458 0.888939,0.10458 1.098101,0.36603 1.176536,0.67977 0.104581,0.2876 0.104581,0.52291 0.104581,0.73207 0,0.13073 0.05229,0.20916 0.156872,0.20916 0.156871,0 0.209162,-0.2353 0.209162,-0.41832 0,-0.15687 0.05229,-0.99352 0.104581,-1.43799 0.05229,-0.73207 0.183016,-1.0981 0.183016,-1.22883 0,-0.13072 -0.05229,-0.18301 -0.130726,-0.18301 -0.07844,0 -0.183017,0.13072 -0.339888,0.2876 -0.235307,0.2353 -0.575195,0.26145 -1.124245,0.31374 -0.522905,0.0523 -3.555754,0.0523 -3.843351,0.0523 -0.130727,0 -0.130727,-0.0784 -0.130727,-0.23531 v -6.03955 c 0,-0.15687 0.02615,-0.23531 0.130727,-0.23531 0.261452,0 2.928267,0.0262 3.320446,0.0784 1.254971,0.15687 1.490279,0.31374 1.64715,0.67977 0.104581,0.26146 0.130726,0.62749 0.130726,0.78436 0,0.18302 0.05229,0.2876 0.183017,0.2876 0.104581,0 0.183017,-0.13073 0.209162,-0.23531 0.05229,-0.26145 0.104581,-1.25497 0.130726,-1.46413 0.05229,-0.62749 0.183017,-0.88894 0.183017,-1.04581 0,-0.10458 -0.02614,-0.20916 -0.104581,-0.20916 -0.104581,0 -0.209162,0.0784 -0.313743,0.10458 -0.183017,0.0261 -0.601341,0.10458 -1.04581,0.13072 -0.522905,0.0262 -5.33363,0 -5.490501,0 -0.130726,0 -1.621005,-0.0523 -2.666815,-0.0523 -0.261453,0 -0.366034,0.0523 -0.366034,0.18302 0,0.0784 0.104581,0.18302 0.183017,0.18302 0.209162,0 0.601341,0.0261 0.784357,0.0523 0.758213,0.10458 0.888939,0.47061 0.941229,1.22882 0.05229,0.70593 0.05229,1.33341 0.05229,4.78458 z"/>
    <path id="path2284" style="font-style:normal;font-variant:normal;font-weight:normal;font-stretch:normal;font-family:'Trajan Pro';-inkscape-font-specification:'Trajan Pro';fill:url(#linearGradient2335);fill-opacity:1;stroke:none;stroke-width:1.49401391px" d="m 107.51168,131.88446 c 1.0981,0 1.49028,-0.0784 1.69944,-0.78436 0.26146,-0.88894 0.78436,-2.92826 0.78436,-3.42502 0,-0.15688 -0.0261,-0.39218 -0.15687,-0.39218 -0.15687,0 -0.23531,0.10458 -0.31374,0.39218 -0.31375,1.38569 -1.15039,2.32692 -3.059,2.50994 -0.94122,0.10458 -4.02636,0.13073 -4.47083,0.13073 h -1.90861 c -0.130722,0 -0.183012,-0.0784 -0.0523,-0.18302 3.24201,-2.7714 9.09855,-7.60827 9.09855,-13.02033 0,-2.7714 -1.96089,-5.28134 -5.90883,-5.28134 -2.11776,0 -3.634185,0.47061 -4.601559,0.91508 -0.235307,0.15687 -0.261453,0.23531 -0.261453,0.39218 0,0.8105 0.130726,2.98056 0.156872,3.21587 0.02614,0.2353 0.104581,0.33988 0.209162,0.33988 0.130726,0 0.235307,-0.15687 0.235307,-0.39218 0,-1.01966 0.287598,-1.93474 0.915083,-2.53608 0.758208,-0.70593 1.542568,-0.99352 2.797538,-0.99352 1.75174,0 4.1571,1.0981 4.1571,4.83687 0,5.01988 -3.89564,8.62793 -9.124693,13.28178 -0.209162,0.18302 -0.470614,0.41833 -0.470614,0.62749 0,0.20916 0.183016,0.36603 0.366033,0.36603 z"/>
    <path id="path2286" style="font-style:normal;font-variant:normal;font-weight:normal;font-stretch:normal;font-family:'Trajan Pro';-inkscape-font-specification:'Trajan Pro';fill:url(#linearGradient2337);fill-opacity:1;stroke:none;stroke-width:1.49401391px" d="m 130.94599,115.4391 c -0.0523,-0.41832 -0.18302,-0.60134 -0.33989,-0.60134 -0.15687,0 -0.26145,0.15687 -0.36603,0.36603 l -6.69318,13.77855 -6.95464,-13.80469 c -0.13072,-0.26145 -0.31374,-0.33989 -0.47061,-0.33989 -0.13073,0 -0.23531,0.15687 -0.26146,0.39218 l -1.67329,14.51061 c -0.10458,0.83665 -0.13073,1.64715 -0.88894,1.77788 -0.33989,0.0523 -0.49676,0.0784 -0.67978,0.0784 -0.13072,0 -0.2353,0.0784 -0.2353,0.15687 0,0.15688 0.15687,0.20917 0.39218,0.20917 0.62748,0 1.72558,-0.0784 1.93474,-0.0784 0.18302,0 1.28112,0.0784 2.14391,0.0784 0.26146,0 0.41833,-0.0523 0.41833,-0.20917 0,-0.0784 -0.10458,-0.15687 -0.18302,-0.15687 -0.15687,0 -0.49676,-0.0261 -0.88894,-0.13072 -0.33989,-0.0784 -0.54905,-0.2876 -0.54905,-0.62749 0,-0.36603 0,-0.78436 0.0262,-1.12424 l 0.88894,-10.03978 h 0.10458 c 0.39218,0.91508 2.24849,4.65385 2.92826,6.0657 0.5752,1.20268 2.09162,4.05251 2.69296,5.15061 0.44447,0.8105 0.5752,1.01967 0.78436,1.01967 0.20916,0 0.33989,-0.20917 0.8105,-1.17654 l 5.5428,-11.34704 h 0.0523 l 1.0981,11.24246 c 0.0523,0.41832 0.0261,0.75821 -0.10458,0.78436 -0.10458,0.0261 -0.15687,0.10458 -0.15687,0.18301 0,0.10458 0.10458,0.18302 0.65363,0.23531 0.83664,0.0784 3.39888,0.13073 3.92178,0.13073 0.26146,0 0.47062,-0.0784 0.47062,-0.20917 0,-0.10458 -0.0784,-0.15687 -0.18302,-0.15687 -0.23531,0 -0.83665,0 -1.49028,-0.20916 -0.94123,-0.31374 -1.0981,-1.51642 -1.17653,-2.30078 z"/>
    <path id="path2288" style="font-style:normal;font-variant:normal;font-weight:normal;font-stretch:normal;font-family:'Trajan Pro';-inkscape-font-specification:'Trajan Pro';fill:url(#linearGradient2339);fill-opacity:1;stroke:none;stroke-width:1.49401391px" d="m 137.98968,129.50524 c -0.44447,1.12425 -0.88894,1.90861 -1.93475,2.03933 -0.18301,0.0262 -0.5229,0.0523 -0.67977,0.0523 -0.10458,0 -0.20916,0.0784 -0.20916,0.18302 0,0.13073 0.15687,0.18302 0.44447,0.18302 0.94122,0 2.09162,-0.0784 2.32692,-0.0784 0.26146,0 1.51643,0.0784 2.06548,0.0784 0.20916,0 0.33989,-0.0523 0.33989,-0.18302 0,-0.10458 -0.0523,-0.18302 -0.23531,-0.18302 h -0.20916 c -0.39218,0 -0.78436,-0.15687 -0.78436,-0.60134 0,-0.39218 0.13072,-0.94123 0.33989,-1.49028 l 1.30726,-3.55575 c 0.0523,-0.13073 0.13073,-0.18302 0.23531,-0.18302 h 5.30748 c 0.13073,0 0.15687,0.0262 0.20916,0.13073 l 2.06548,5.09832 c 0.15687,0.36604 -0.0784,0.54905 -0.20916,0.60134 -0.10459,0.0523 -0.15688,0.0523 -0.15688,0.15687 0,0.13073 0.36604,0.13073 0.81051,0.15688 1.59486,0.0523 3.2943,0.0523 3.63419,0.0523 0.26145,0 0.5229,-0.0523 0.5229,-0.18302 0,-0.13073 -0.15687,-0.18302 -0.2876,-0.18302 -0.2353,0 -0.57519,-0.0261 -0.91508,-0.13072 -0.49676,-0.15687 -1.12425,-0.44447 -1.96089,-2.43151 -1.41185,-3.37274 -5.09833,-12.54972 -5.51665,-13.49095 -0.23531,-0.49676 -0.31374,-0.8105 -0.54905,-0.8105 -0.15687,0 -0.26145,0.13073 -0.54905,0.86279 z m 3.32045,-4.65385 c -0.0784,0 -0.10458,-0.0523 -0.0784,-0.15687 l 2.14391,-6.09184 c 0.13073,-0.33989 0.26146,-0.33989 0.39218,0 l 2.27464,6.09184 c 0.0261,0.10458 0.0261,0.15687 -0.0784,0.15687 z"/>
    <path id="path2290" style="font-style:normal;font-variant:normal;font-weight:normal;font-stretch:normal;font-family:'Trajan Pro';-inkscape-font-specification:'Trajan Pro';fill:url(#linearGradient2341);fill-opacity:1;stroke:none;stroke-width:1.49401391px" d="m 156.188,125.50502 c 0,2.14391 0,3.89564 -0.13073,4.81073 -0.10458,0.65363 -0.15687,1.07195 -0.60134,1.17653 -0.20916,0.0523 -0.49676,0.10458 -0.70592,0.10458 -0.13073,0 -0.18302,0.10458 -0.18302,0.18302 0,0.13073 0.13073,0.18302 0.36604,0.18302 0.70592,0 2.1962,-0.0784 2.27463,-0.0784 0.10458,0 1.62101,0.0784 2.87598,0.0784 0.26145,0 0.36603,-0.0784 0.36603,-0.18302 0,-0.0784 -0.0523,-0.18302 -0.18301,-0.18302 -0.20917,0 -0.70593,-0.0523 -1.01967,-0.10458 -0.70592,-0.10458 -0.83665,-0.5229 -0.91508,-1.17653 -0.10458,-0.91509 -0.10458,-2.66682 -0.10458,-4.81073 v -9.04625 c 0,-0.23531 0.0523,-0.39218 0.18301,-0.41833 0.23531,-0.0523 0.88894,-0.15687 1.28112,-0.15687 0.5229,0 1.9086,-0.13073 3.11128,1.07196 1.22883,1.20268 1.30727,2.64067 1.30727,3.37273 0,2.01319 -1.77788,3.5819 -4.26168,3.5819 -0.47061,0 -0.60134,0.0523 -0.60134,0.23531 0,0.10458 0.13073,0.20916 0.23531,0.20916 0.13072,0.0262 0.5229,0.0262 0.65363,0.0262 3.52961,0 5.93497,-2.11777 5.93497,-5.30749 0,-1.20268 -0.62749,-2.1962 -1.15039,-2.66681 -0.39218,-0.33989 -1.43799,-1.25498 -4.3924,-1.25498 -1.04581,0 -2.7714,0.0523 -3.26816,0.0523 -0.18301,0 -1.621,-0.0523 -2.66681,-0.0523 -0.26146,0 -0.36604,0.0523 -0.36604,0.18302 0,0.0784 0.10458,0.18302 0.18302,0.18302 0.20916,0 0.60134,0.0261 0.78436,0.0523 0.75821,0.10458 0.88894,0.47061 0.94123,1.22882 0.0523,0.70593 0.0523,1.33341 0.0523,4.78458 z"/>
  </g>
  <g id="text910" style="font-style:normal;font-variant:normal;font-weight:normal;font-stretch:normal;font-size:26.1452446px;line-height:125%;font-family:'Open Sans';-inkscape-font-specification:'Open Sans, Normal';text-align:center;letter-spacing:0px;word-spacing:0px;writing-mode:lr-tb;text-anchor:middle;fill:url(#linearGradient870);fill-opacity:1;stroke:none;stroke-width:1.49401391px;stroke-linecap:butt;stroke-linejoin:miter;stroke-opacity:1;filter:url(#filter916)" aria-label="aoe2map" transform="matrix(1, 0, 0, 1, 115.913298, 22.971357)">
    <path id="path2261" style="font-style:normal;font-variant:normal;font-weight:normal;font-stretch:normal;font-family:'Trajan Pro';-inkscape-font-specification:'Trajan Pro';fill:url(#linearGradient2347);fill-opacity:1;stroke:none;stroke-width:1.49401391px" d="m 47.349432,129.50524 c -0.444469,1.12425 -0.888938,1.90861 -1.934748,2.03933 -0.183017,0.0262 -0.522905,0.0523 -0.679777,0.0523 -0.104581,0 -0.209161,0.0784 -0.209161,0.18302 0,0.13073 0.156871,0.18302 0.444469,0.18302 0.941228,0 2.091619,-0.0784 2.326926,-0.0784 0.261453,0 1.516425,0.0784 2.065475,0.0784 0.209162,0 0.339888,-0.0523 0.339888,-0.18302 0,-0.10458 -0.05229,-0.18302 -0.235307,-0.18302 h -0.209162 c -0.392179,0 -0.784358,-0.15687 -0.784358,-0.60134 0,-0.39218 0.130727,-0.94123 0.339889,-1.49028 l 1.307262,-3.55575 c 0.05229,-0.13073 0.130726,-0.18302 0.235307,-0.18302 h 5.307485 c 0.130726,0 0.156871,0.0262 0.209162,0.13073 l 2.065474,5.09832 c 0.156871,0.36604 -0.07844,0.54905 -0.209162,0.60134 -0.104581,0.0523 -0.156871,0.0523 -0.156871,0.15687 0,0.13073 0.366033,0.13073 0.810502,0.15688 1.59486,0.0523 3.294301,0.0523 3.634189,0.0523 0.261453,0 0.522905,-0.0523 0.522905,-0.18302 0,-0.13073 -0.156871,-0.18302 -0.287598,-0.18302 -0.235307,0 -0.575195,-0.0261 -0.915083,-0.13072 -0.49676,-0.15687 -1.124246,-0.44447 -1.960894,-2.43151 -1.411843,-3.37274 -5.098322,-12.54972 -5.516646,-13.49095 -0.235307,-0.49676 -0.313743,-0.8105 -0.54905,-0.8105 -0.156872,0 -0.261453,0.13073 -0.54905,0.86279 z m 3.320446,-4.65385 c -0.07844,0 -0.104581,-0.0523 -0.07844,-0.15687 l 2.14391,-6.09184 c 0.130727,-0.33989 0.261453,-0.33989 0.392179,0 l 2.274636,6.09184 c 0.02615,0.10458 0.02615,0.15687 -0.07843,0.15687 z"/>
    <path id="path2263" style="font-style:normal;font-variant:normal;font-weight:normal;font-stretch:normal;font-family:'Trajan Pro';-inkscape-font-specification:'Trajan Pro';fill:url(#linearGradient2349);fill-opacity:1;stroke:none;stroke-width:1.49401391px" d="m 62.933223,123.51798 c 0,4.00022 2.69296,8.73251 8.993964,8.73251 5.542792,0 9.229272,-4.1048 9.229272,-9.0724 0,-5.17675 -3.921787,-8.34033 -9.098545,-8.34033 -6.353295,0 -9.124691,5.09832 -9.124691,8.68022 z m 2.379217,-0.60134 c 0,-4.83687 2.771396,-7.24223 6.614747,-7.24223 3.634189,0 6.8762,2.79754 6.8762,8.13117 0,6.43173 -4.157094,7.52983 -6.222569,7.52983 -4.157093,0 -7.268378,-3.24201 -7.268378,-8.41877 z"/>
    <path id="path2265" style="font-style:normal;font-variant:normal;font-weight:normal;font-stretch:normal;font-family:'Trajan Pro';-inkscape-font-specification:'Trajan Pro';fill:url(#linearGradient2351);fill-opacity:1;stroke:none;stroke-width:1.49401391px" d="m 85.973718,125.50502 c 0,2.14391 0,3.89564 -0.130726,4.81073 -0.104581,0.65363 -0.156872,1.0981 -0.601341,1.17653 -0.209162,0.0262 -0.49676,0.10458 -0.705922,0.10458 -0.130726,0 -0.183016,0.10458 -0.183016,0.18302 0,0.13073 0.130726,0.18302 0.366033,0.18302 0.366033,0 0.888938,-0.0262 1.333408,-0.0523 0.496759,-0.0262 0.941228,-0.0262 0.993519,-0.0262 0.339888,0 0.941229,0 1.908603,0.0523 0.941228,0.0262 2.274636,0.0784 4.000222,0.0784 0.888938,0 1.124246,0 1.281117,-0.5752 0.130726,-0.47061 0.313743,-1.98704 0.313743,-2.14391 0,-0.15687 -0.02614,-0.33989 -0.156871,-0.33989 -0.130727,0 -0.183017,0.0784 -0.235308,0.33989 -0.130726,0.88894 -0.444469,1.28112 -1.045809,1.54257 -0.601341,0.23531 -1.699441,0.23531 -2.300782,0.23531 -2.274636,0 -2.69296,-0.2876 -2.745251,-1.77788 -0.02614,-0.44447 0,-3.03285 0,-3.79106 v -1.85631 c 0,-0.0784 0.02615,-0.15687 0.156872,-0.15687 0.392178,0 2.849831,0.0261 3.477317,0.10458 0.888939,0.10458 1.098101,0.36603 1.176536,0.67977 0.104581,0.2876 0.104581,0.52291 0.104581,0.73207 0,0.13073 0.05229,0.20916 0.156872,0.20916 0.156871,0 0.209162,-0.2353 0.209162,-0.41832 0,-0.15687 0.05229,-0.99352 0.104581,-1.43799 0.05229,-0.73207 0.183016,-1.0981 0.183016,-1.22883 0,-0.13072 -0.05229,-0.18301 -0.130726,-0.18301 -0.07844,0 -0.183017,0.13072 -0.339888,0.2876 -0.235307,0.2353 -0.575195,0.26145 -1.124245,0.31374 -0.522905,0.0523 -3.555754,0.0523 -3.843351,0.0523 -0.130727,0 -0.130727,-0.0784 -0.130727,-0.23531 v -6.03955 c 0,-0.15687 0.02615,-0.23531 0.130727,-0.23531 0.261452,0 2.928267,0.0262 3.320446,0.0784 1.254971,0.15687 1.490279,0.31374 1.64715,0.67977 0.104581,0.26146 0.130726,0.62749 0.130726,0.78436 0,0.18302 0.05229,0.2876 0.183017,0.2876 0.104581,0 0.183017,-0.13073 0.209162,-0.23531 0.05229,-0.26145 0.104581,-1.25497 0.130726,-1.46413 0.05229,-0.62749 0.183017,-0.88894 0.183017,-1.04581 0,-0.10458 -0.02614,-0.20916 -0.104581,-0.20916 -0.104581,0 -0.209162,0.0784 -0.313743,0.10458 -0.183017,0.0261 -0.601341,0.10458 -1.04581,0.13072 -0.522905,0.0262 -5.33363,0 -5.490501,0 -0.130726,0 -1.621005,-0.0523 -2.666815,-0.0523 -0.261453,0 -0.366034,0.0523 -0.366034,0.18302 0,0.0784 0.104581,0.18302 0.183017,0.18302 0.209162,0 0.601341,0.0261 0.784357,0.0523 0.758213,0.10458 0.888939,0.47061 0.941229,1.22882 0.05229,0.70593 0.05229,1.33341 0.05229,4.78458 z"/>
    <path id="path2267" style="font-style:normal;font-variant:normal;font-weight:normal;font-stretch:normal;font-family:'Trajan Pro';-inkscape-font-specification:'Trajan Pro';fill:url(#linearGradient2353);fill-opacity:1;stroke:none;stroke-width:1.49401391px" d="m 107.51168,131.88446 c 1.0981,0 1.49028,-0.0784 1.69944,-0.78436 0.26146,-0.88894 0.78436,-2.92826 0.78436,-3.42502 0,-0.15688 -0.0261,-0.39218 -0.15687,-0.39218 -0.15687,0 -0.23531,0.10458 -0.31374,0.39218 -0.31375,1.38569 -1.15039,2.32692 -3.059,2.50994 -0.94122,0.10458 -4.02636,0.13073 -4.47083,0.13073 h -1.90861 c -0.130722,0 -0.183012,-0.0784 -0.0523,-0.18302 3.24201,-2.7714 9.09855,-7.60827 9.09855,-13.02033 0,-2.7714 -1.96089,-5.28134 -5.90883,-5.28134 -2.11776,0 -3.634185,0.47061 -4.601559,0.91508 -0.235307,0.15687 -0.261453,0.23531 -0.261453,0.39218 0,0.8105 0.130726,2.98056 0.156872,3.21587 0.02614,0.2353 0.104581,0.33988 0.209162,0.33988 0.130726,0 0.235307,-0.15687 0.235307,-0.39218 0,-1.01966 0.287598,-1.93474 0.915083,-2.53608 0.758208,-0.70593 1.542568,-0.99352 2.797538,-0.99352 1.75174,0 4.1571,1.0981 4.1571,4.83687 0,5.01988 -3.89564,8.62793 -9.124693,13.28178 -0.209162,0.18302 -0.470614,0.41833 -0.470614,0.62749 0,0.20916 0.183016,0.36603 0.366033,0.36603 z"/>
    <path id="path2269" style="font-style:normal;font-variant:normal;font-weight:normal;font-stretch:normal;font-family:'Trajan Pro';-inkscape-font-specification:'Trajan Pro';fill:url(#linearGradient2355);fill-opacity:1;stroke:none;stroke-width:1.49401391px" d="m 130.94599,115.4391 c -0.0523,-0.41832 -0.18302,-0.60134 -0.33989,-0.60134 -0.15687,0 -0.26145,0.15687 -0.36603,0.36603 l -6.69318,13.77855 -6.95464,-13.80469 c -0.13072,-0.26145 -0.31374,-0.33989 -0.47061,-0.33989 -0.13073,0 -0.23531,0.15687 -0.26146,0.39218 l -1.67329,14.51061 c -0.10458,0.83665 -0.13073,1.64715 -0.88894,1.77788 -0.33989,0.0523 -0.49676,0.0784 -0.67978,0.0784 -0.13072,0 -0.2353,0.0784 -0.2353,0.15687 0,0.15688 0.15687,0.20917 0.39218,0.20917 0.62748,0 1.72558,-0.0784 1.93474,-0.0784 0.18302,0 1.28112,0.0784 2.14391,0.0784 0.26146,0 0.41833,-0.0523 0.41833,-0.20917 0,-0.0784 -0.10458,-0.15687 -0.18302,-0.15687 -0.15687,0 -0.49676,-0.0261 -0.88894,-0.13072 -0.33989,-0.0784 -0.54905,-0.2876 -0.54905,-0.62749 0,-0.36603 0,-0.78436 0.0262,-1.12424 l 0.88894,-10.03978 h 0.10458 c 0.39218,0.91508 2.24849,4.65385 2.92826,6.0657 0.5752,1.20268 2.09162,4.05251 2.69296,5.15061 0.44447,0.8105 0.5752,1.01967 0.78436,1.01967 0.20916,0 0.33989,-0.20917 0.8105,-1.17654 l 5.5428,-11.34704 h 0.0523 l 1.0981,11.24246 c 0.0523,0.41832 0.0261,0.75821 -0.10458,0.78436 -0.10458,0.0261 -0.15687,0.10458 -0.15687,0.18301 0,0.10458 0.10458,0.18302 0.65363,0.23531 0.83664,0.0784 3.39888,0.13073 3.92178,0.13073 0.26146,0 0.47062,-0.0784 0.47062,-0.20917 0,-0.10458 -0.0784,-0.15687 -0.18302,-0.15687 -0.23531,0 -0.83665,0 -1.49028,-0.20916 -0.94123,-0.31374 -1.0981,-1.51642 -1.17653,-2.30078 z"/>
    <path id="path2271" style="font-style:normal;font-variant:normal;font-weight:normal;font-stretch:normal;font-family:'Trajan Pro';-inkscape-font-specification:'Trajan Pro';fill:url(#linearGradient2357);fill-opacity:1;stroke:none;stroke-width:1.49401391px" d="m 137.98968,129.50524 c -0.44447,1.12425 -0.88894,1.90861 -1.93475,2.03933 -0.18301,0.0262 -0.5229,0.0523 -0.67977,0.0523 -0.10458,0 -0.20916,0.0784 -0.20916,0.18302 0,0.13073 0.15687,0.18302 0.44447,0.18302 0.94122,0 2.09162,-0.0784 2.32692,-0.0784 0.26146,0 1.51643,0.0784 2.06548,0.0784 0.20916,0 0.33989,-0.0523 0.33989,-0.18302 0,-0.10458 -0.0523,-0.18302 -0.23531,-0.18302 h -0.20916 c -0.39218,0 -0.78436,-0.15687 -0.78436,-0.60134 0,-0.39218 0.13072,-0.94123 0.33989,-1.49028 l 1.30726,-3.55575 c 0.0523,-0.13073 0.13073,-0.18302 0.23531,-0.18302 h 5.30748 c 0.13073,0 0.15687,0.0262 0.20916,0.13073 l 2.06548,5.09832 c 0.15687,0.36604 -0.0784,0.54905 -0.20916,0.60134 -0.10459,0.0523 -0.15688,0.0523 -0.15688,0.15687 0,0.13073 0.36604,0.13073 0.81051,0.15688 1.59486,0.0523 3.2943,0.0523 3.63419,0.0523 0.26145,0 0.5229,-0.0523 0.5229,-0.18302 0,-0.13073 -0.15687,-0.18302 -0.2876,-0.18302 -0.2353,0 -0.57519,-0.0261 -0.91508,-0.13072 -0.49676,-0.15687 -1.12425,-0.44447 -1.96089,-2.43151 -1.41185,-3.37274 -5.09833,-12.54972 -5.51665,-13.49095 -0.23531,-0.49676 -0.31374,-0.8105 -0.54905,-0.8105 -0.15687,0 -0.26145,0.13073 -0.54905,0.86279 z m 3.32045,-4.65385 c -0.0784,0 -0.10458,-0.0523 -0.0784,-0.15687 l 2.14391,-6.09184 c 0.13073,-0.33989 0.26146,-0.33989 0.39218,0 l 2.27464,6.09184 c 0.0261,0.10458 0.0261,0.15687 -0.0784,0.15687 z"/>
    <path id="path2273" style="font-style:normal;font-variant:normal;font-weight:normal;font-stretch:normal;font-family:'Trajan Pro';-inkscape-font-specification:'Trajan Pro';fill:url(#linearGradient2359);fill-opacity:1;stroke:none;stroke-width:1.49401391px" d="m 156.188,125.50502 c 0,2.14391 0,3.89564 -0.13073,4.81073 -0.10458,0.65363 -0.15687,1.07195 -0.60134,1.17653 -0.20916,0.0523 -0.49676,0.10458 -0.70592,0.10458 -0.13073,0 -0.18302,0.10458 -0.18302,0.18302 0,0.13073 0.13073,0.18302 0.36604,0.18302 0.70592,0 2.1962,-0.0784 2.27463,-0.0784 0.10458,0 1.62101,0.0784 2.87598,0.0784 0.26145,0 0.36603,-0.0784 0.36603,-0.18302 0,-0.0784 -0.0523,-0.18302 -0.18301,-0.18302 -0.20917,0 -0.70593,-0.0523 -1.01967,-0.10458 -0.70592,-0.10458 -0.83665,-0.5229 -0.91508,-1.17653 -0.10458,-0.91509 -0.10458,-2.66682 -0.10458,-4.81073 v -9.04625 c 0,-0.23531 0.0523,-0.39218 0.18301,-0.41833 0.23531,-0.0523 0.88894,-0.15687 1.28112,-0.15687 0.5229,0 1.9086,-0.13073 3.11128,1.07196 1.22883,1.20268 1.30727,2.64067 1.30727,3.37273 0,2.01319 -1.77788,3.5819 -4.26168,3.5819 -0.47061,0 -0.60134,0.0523 -0.60134,0.23531 0,0.10458 0.13073,0.20916 0.23531,0.20916 0.13072,0.0262 0.5229,0.0262 0.65363,0.0262 3.52961,0 5.93497,-2.11777 5.93497,-5.30749 0,-1.20268 -0.62749,-2.1962 -1.15039,-2.66681 -0.39218,-0.33989 -1.43799,-1.25498 -4.3924,-1.25498 -1.04581,0 -2.7714,0.0523 -3.26816,0.0523 -0.18301,0 -1.621,-0.0523 -2.66681,-0.0523 -0.26146,0 -0.36604,0.0523 -0.36604,0.18302 0,0.0784 0.10458,0.18302 0.18302,0.18302 0.20916,0 0.60134,0.0261 0.78436,0.0523 0.75821,0.10458 0.88894,0.47061 0.94123,1.22882 0.0523,0.70593 0.0523,1.33341 0.0523,4.78458 z"/>
  </g>
</svg>